<svg id="svg" xmlns="http://www.w3.org/2000/svg" xmlns:xlink="http://www.w3.org/1999/xlink" width="400" height="159.468438538206" viewBox="0, 0, 400,159.468438538206"><g id="svgg"><path id="path0" d="M5.803 2.355 C 0.096 6.978,0.000 8.073,0.000 68.351 C 0.000 125.061,0.054 126.246,2.617 126.246 C 5.175 126.246,5.243 124.934,5.607 68.320 L 5.980 10.395 9.117 7.855 C 13.890 3.992,19.934 4.429,19.934 8.638 C 19.934 16.320,23.022 17.276,47.841 17.276 C 72.659 17.276,75.748 16.320,75.748 8.638 C 75.748 4.429,81.792 3.992,86.564 7.856 L 89.701 10.396 89.701 79.734 L 89.701 149.072 86.564 151.612 C 83.649 153.972,80.898 154.153,47.841 154.153 C 5.294 154.153,6.469 154.536,5.567 140.377 C 4.729 127.208,0.000 127.131,-0.000 140.287 C -0.000 159.355,0.136 159.409,47.841 159.409 C 90.296 159.409,90.370 159.397,94.197 151.915 C 96.285 147.831,96.285 11.637,94.197 7.554 C 90.620 0.560,88.663 0.061,64.687 0.030 C 44.102 0.002,42.365 0.184,42.775 2.326 C 43.156 4.318,45.071 4.706,56.162 5.032 C 68.008 5.380,69.103 5.633,69.103 8.022 C 69.103 10.506,68.086 10.631,47.841 10.631 C 27.685 10.631,26.578 10.497,26.578 8.054 C 26.578 6.036,27.657 5.387,31.550 5.064 C 35.025 4.775,36.655 3.951,36.963 2.326 C 37.619 -1.131,10.075 -1.105,5.803 2.355 M31.927 46.478 C 23.430 54.976,32.596 72.166,41.776 64.946 C 46.554 61.187,46.631 51.825,41.921 47.116 C 37.974 43.168,35.401 43.004,31.927 46.478 M53.760 47.116 C 49.050 51.825,49.127 61.187,53.905 64.946 C 63.085 72.166,72.252 54.976,63.754 46.478 C 60.280 43.004,57.707 43.168,53.760 47.116 M193.266 47.126 C 190.716 51.018,192.592 58.968,196.406 60.432 C 199.018 61.434,204.651 55.707,204.651 52.049 C 204.651 44.867,196.933 41.530,193.266 47.126 M208.734 47.355 C 203.920 53.476,205.700 61.130,211.939 61.130 C 218.084 61.130,220.679 50.769,215.765 45.855 C 212.998 43.088,211.908 43.321,208.734 47.355 M108.970 46.357 C 108.970 47.002,110.166 47.843,111.628 48.226 C 115.737 49.300,115.737 90.765,111.628 93.332 C 107.156 96.124,108.597 97.010,117.608 97.010 C 126.706 97.010,128.448 95.782,122.924 93.265 C 120.002 91.934,117.223 61.130,120.025 61.130 C 120.258 61.130,123.696 69.214,127.666 79.095 C 136.919 102.128,137.692 102.212,145.699 81.063 C 148.882 72.658,151.739 65.183,152.050 64.452 C 152.360 63.721,152.661 69.906,152.719 78.198 C 152.816 92.201,152.635 93.321,150.166 93.967 C 143.866 95.615,148.437 97.010,160.133 97.010 C 171.975 97.010,176.166 95.613,170.100 93.688 C 167.584 92.889,167.442 91.677,167.442 71.096 C 167.442 50.516,167.584 49.303,170.100 48.505 C 175.660 46.740,172.388 45.183,163.123 45.183 L 153.488 45.184 148.209 59.697 C 141.990 76.794,142.656 76.823,135.555 59.152 L 129.940 45.183 119.455 45.183 C 113.688 45.183,108.970 45.711,108.970 46.357 M231.229 46.254 C 231.229 46.956,232.425 47.843,233.887 48.226 C 238.017 49.306,238.017 92.887,233.887 93.967 C 226.892 95.796,232.863 97.010,248.837 97.005 C 271.682 96.999,277.741 93.756,277.741 81.539 C 277.741 77.334,271.025 70.444,266.880 70.397 C 263.822 70.362,263.828 70.336,267.341 68.157 C 274.414 63.769,275.895 54.304,270.329 49.069 C 266.674 45.631,231.229 43.079,231.229 46.254 M281.728 46.357 C 281.728 47.002,282.924 47.843,284.385 48.226 C 288.515 49.306,288.515 92.887,284.385 93.967 C 278.085 95.615,282.656 97.010,294.352 97.010 C 306.194 97.010,310.385 95.613,304.319 93.688 C 301.804 92.889,301.661 91.677,301.661 71.096 C 301.661 50.516,301.804 49.303,304.319 48.505 C 310.385 46.580,306.194 45.183,294.352 45.183 C 287.409 45.183,281.728 45.711,281.728 46.357 M310.963 46.357 C 310.963 47.002,312.159 47.843,313.621 48.226 C 317.751 49.306,317.751 92.887,313.621 93.967 C 306.255 95.894,313.081 97.010,332.226 97.010 L 353.488 97.010 353.488 86.946 C 353.488 75.779,350.260 73.126,347.668 82.163 C 345.751 88.850,339.751 94.628,335.261 94.113 L 331.561 93.688 331.198 71.528 C 330.849 50.286,330.945 49.333,333.523 48.515 C 339.620 46.580,335.454 45.183,323.588 45.183 C 316.645 45.183,310.963 45.711,310.963 46.357 M357.475 46.357 C 357.475 47.002,358.671 47.843,360.133 48.226 C 362.657 48.886,362.791 50.038,362.791 71.096 C 362.791 92.154,362.657 93.307,360.133 93.967 C 352.766 95.894,359.592 97.010,378.738 97.010 L 400.000 97.010 400.000 87.708 C 400.000 77.052,395.880 73.611,394.151 82.824 C 393.163 88.092,389.212 92.678,384.684 93.815 C 378.386 95.395,377.409 93.949,377.409 83.051 C 377.409 72.379,380.764 70.419,384.084 79.151 C 386.935 86.649,389.369 82.940,389.369 71.096 C 389.369 58.855,386.768 55.428,383.844 63.815 C 380.412 73.661,377.267 71.481,377.686 59.545 C 378.211 44.562,387.931 42.948,392.182 57.137 C 394.953 66.385,398.671 64.485,398.671 53.821 L 398.671 45.183 378.073 45.183 C 366.744 45.183,357.475 45.711,357.475 46.357 M257.068 50.794 C 260.033 55.027,259.725 63.199,256.478 66.445 C 252.065 70.859,251.163 69.656,251.163 59.358 C 251.163 47.193,252.841 44.759,257.068 50.794 M39.320 57.812 C 38.585 60.743,38.090 61.083,36.490 59.755 C 34.483 58.089,33.860 52.962,35.469 51.353 C 37.375 49.446,40.222 54.220,39.320 57.812 M61.130 55.065 C 61.130 56.760,60.283 58.849,59.248 59.708 C 56.677 61.841,55.103 56.967,57.136 53.169 C 58.928 49.821,61.130 50.866,61.130 55.065 M183.508 57.023 C 178.814 61.718,180.384 70.116,186.342 72.184 C 192.197 74.216,194.733 62.182,189.488 57.255 L 186.285 54.246 183.508 57.023 M217.910 61.160 C 214.616 64.454,214.517 70.656,217.713 73.548 C 220.827 76.367,222.326 76.320,225.043 73.317 C 230.933 66.809,224.029 55.041,217.910 61.160 M14.914 64.527 C 6.195 70.634,17.143 87.442,26.557 82.403 C 33.990 78.425,28.462 62.458,19.652 62.458 C 18.670 62.458,16.538 63.389,14.914 64.527 M71.429 63.894 C 68.000 65.891,64.784 72.915,65.675 76.462 C 67.637 84.282,73.899 85.774,79.836 79.836 C 88.324 71.349,81.346 58.117,71.429 63.894 M192.739 73.155 C 183.744 82.973,182.938 84.400,183.999 88.629 C 185.553 94.821,187.140 95.349,204.324 95.385 C 227.086 95.433,230.694 89.728,216.862 75.561 C 213.435 72.051,209.860 68.266,208.918 67.148 C 205.380 62.953,200.389 64.806,192.739 73.155 M41.736 69.863 C 39.475 70.979,36.231 74.403,34.527 77.474 C 32.823 80.544,29.440 85.407,27.010 88.279 C 21.057 95.316,20.837 102.977,26.409 109.214 L 30.226 113.487 46.259 113.718 C 71.634 114.084,81.414 103.675,69.258 89.240 C 67.009 86.570,63.584 81.576,61.647 78.142 C 56.434 68.903,49.514 66.026,41.736 69.863 M22.326 70.698 C 24.550 72.922,24.320 77.076,21.974 77.076 C 19.681 77.076,16.796 72.283,17.957 70.404 C 19.028 68.672,20.391 68.763,22.326 70.698 M77.724 70.404 C 78.885 72.283,76.000 77.076,73.707 77.076 C 71.361 77.076,71.131 72.922,73.355 70.698 C 75.290 68.763,76.653 68.672,77.724 70.404 M257.042 73.285 C 264.184 76.540,263.871 91.341,256.612 93.645 C 252.015 95.104,251.163 93.332,251.163 82.314 C 251.163 71.330,251.526 70.772,257.042 73.285 M51.910 75.792 C 53.322 76.547,55.615 79.388,57.006 82.104 C 58.398 84.821,61.390 89.368,63.655 92.209 C 72.508 103.313,68.856 106.889,48.441 107.105 C 25.974 107.344,23.147 103.962,33.873 89.675 C 37.154 85.304,39.845 81.014,39.853 80.142 C 39.889 76.100,47.414 73.386,51.910 75.792 M45.183 87.708 C 45.183 89.480,44.297 90.365,42.525 90.365 C 40.753 90.365,39.867 91.251,39.867 93.023 C 39.867 94.763,40.753 95.681,42.432 95.681 C 44.081 95.681,45.150 96.750,45.423 98.671 C 45.656 100.316,46.744 101.661,47.841 101.661 C 48.937 101.661,50.025 100.316,50.259 98.671 C 50.531 96.750,51.600 95.681,53.249 95.681 C 54.928 95.681,55.814 94.763,55.814 93.023 C 55.814 91.251,54.928 90.365,53.156 90.365 C 51.384 90.365,50.498 89.480,50.498 87.708 C 50.498 85.936,49.612 85.050,47.841 85.050 C 46.069 85.050,45.183 85.936,45.183 87.708 M110.299 111.856 C 110.299 112.712,113.370 123.775,117.123 136.440 L 123.948 159.468 129.658 159.468 C 133.954 159.468,135.537 158.892,136.045 157.143 C 138.041 150.274,149.049 113.376,149.525 111.960 C 149.914 110.802,148.350 110.299,144.359 110.299 L 138.636 110.299 134.184 126.372 L 129.732 142.445 126.766 132.020 C 125.135 126.286,123.131 119.053,122.314 115.947 C 120.839 110.340,110.299 106.752,110.299 111.856 M154.153 134.884 L 154.153 159.468 167.442 159.468 L 180.731 159.468 180.731 155.482 L 180.731 151.495 172.757 151.495 L 164.784 151.495 164.784 144.850 L 164.784 138.206 172.093 138.206 C 179.328 138.206,179.402 138.166,179.402 134.219 C 179.402 130.273,179.328 130.233,172.093 130.233 L 164.784 130.233 164.784 124.252 L 164.784 118.272 172.757 118.272 L 180.731 118.272 180.731 114.286 L 180.731 110.299 167.442 110.299 L 154.153 110.299 154.153 134.884 M183.389 114.286 C 183.389 118.125,183.610 118.272,189.369 118.272 L 195.349 118.272 195.349 138.870 L 195.349 159.468 200.664 159.468 L 205.980 159.468 205.980 138.870 L 205.980 118.272 211.960 118.272 C 217.719 118.272,217.940 118.125,217.940 114.286 L 217.940 110.299 200.664 110.299 L 183.389 110.299 183.389 114.286 M31.182 143.597 C 29.242 146.738,33.313 147.584,48.616 147.220 C 61.639 146.911,64.452 146.490,64.452 144.850 C 64.452 142.315,32.714 141.119,31.182 143.597 " stroke="none" fill="#000000" fill-rule="evenodd"></path></g></svg>